<?xml version="1.0" encoding="UTF-8" standalone="no"?>
<svg width="410px" height="474px" viewBox="0 0 410 474" version="1.1" xmlns="http://www.w3.org/2000/svg" xmlns:xlink="http://www.w3.org/1999/xlink" xmlns:sketch="http://www.bohemiancoding.com/sketch/ns">
    <!-- Generator: Sketch 3.3.3 (12081) - http://www.bohemiancoding.com/sketch -->
    <title>LSTM cell</title>
    <desc>Created with Sketch.</desc>
    <defs></defs>
    <g id="Page-1" stroke="none" stroke-width="1" fill="none" fill-rule="evenodd" sketch:type="MSPage">
        <g id="LSTM-cell" sketch:type="MSLayerGroup" transform="translate(-1.000000, 0.000000)">
            <path d="M171,69 L81,69 L81,184 C100.329966,184 116,199.670034 116,219 C116,238.329966 100.329966,254 81,254 L81,254 L81,369 L171,369 C171,349.670034 186.670034,334 206,334 C225.329966,334 241,349.670034 241,369 L331,369 L331,329 C311.670034,329 296,313.329966 296,294 C296,274.670034 311.670034,259 331,259 L331,179 C311.670034,179 296,163.329966 296,144 C296,124.670034 311.670034,109 331,109 L331,69 L241,69 C241,88.3299662 225.329966,104 206,104 C186.670034,104 171,88.3299662 171,69 Z" id="Rectangle-1" stroke="#979797" sketch:type="MSShapeGroup"></path>
            <circle id="Input" stroke="#979797" sketch:type="MSShapeGroup" cx="206" cy="369" r="35"></circle>
            <circle id="Output" stroke="#979797" sketch:type="MSShapeGroup" cx="206" cy="69" r="35"></circle>
            <circle id="Cell-state" stroke="#979797" fill="#D8D8D8" sketch:type="MSShapeGroup" cx="206" cy="219" r="35"></circle>
            <circle id="Forget-gate" stroke="#979797" sketch:type="MSShapeGroup" cx="81" cy="219" r="35"></circle>
            <circle id="Input-gate" stroke="#979797" sketch:type="MSShapeGroup" cx="331" cy="294" r="35"></circle>
            <circle id="Output-gate" stroke="#979797" sketch:type="MSShapeGroup" cx="331" cy="144" r="35"></circle>
            <circle id="Product-down" fill="#D5D5D5" sketch:type="MSShapeGroup" cx="206" cy="294" r="15"></circle>
            <circle id="Product-down-Copy" fill="#000000" sketch:type="MSShapeGroup" cx="206.5" cy="294.5" r="1.5"></circle>
            <circle id="Product-left" fill="#D5D5D5" sketch:type="MSShapeGroup" cx="143" cy="219" r="15"></circle>
            <circle id="Product-left-Copy" fill="#000000" sketch:type="MSShapeGroup" cx="143.5" cy="219.5" r="1.5"></circle>
            <circle id="Product-up" fill="#D6D6D6" sketch:type="MSShapeGroup" cx="206" cy="144" r="15"></circle>
            <circle id="Product-up-Copy" fill="#000000" sketch:type="MSShapeGroup" cx="206.5" cy="144.5" r="1.5"></circle>
            <path d="M206.5,443.5 L206.5,405.5" id="Line" stroke="#979797" stroke-linecap="square" fill="#979797" sketch:type="MSShapeGroup"></path>
            <path id="Line-decoration-1" d="M206.5,405.5 L203.5,416.3 L209.5,416.3 L206.5,405.5 Z" stroke="#979797" stroke-linecap="square" fill="#979797"></path>
            <path d="M206.5,333.5 L206.5,310.5" id="Line-Copy-41" stroke="#979797" stroke-linecap="square" fill="#979797" sketch:type="MSShapeGroup"></path>
            <path id="Line-Copy-41-decoration-1" d="M206.5,310.5 L203.5,321.3 L209.5,321.3 L206.5,310.5 Z" stroke="#979797" stroke-linecap="square" fill="#979797"></path>
            <path d="M206.5,278.5 L206.5,255.5" id="Line-Copy-42" stroke="#979797" stroke-linecap="square" fill="#979797" sketch:type="MSShapeGroup"></path>
            <path id="Line-Copy-42-decoration-1" d="M206.5,255.5 L203.5,266.3 L209.5,266.3 L206.5,255.5 Z" stroke="#979797" stroke-linecap="square" fill="#979797"></path>
            <path d="M144.5,265.5 L144.5,234.5" id="Line-Copy-54" stroke="#979797" stroke-linecap="square" fill="#979797" sketch:type="MSShapeGroup"></path>
            <path id="Line-Copy-54-decoration-1" d="M144.5,234.5 L141.5,245.3 L147.5,245.3 L144.5,234.5 Z" stroke="#979797" stroke-linecap="square" fill="#979797"></path>
            <path d="M295.50676,294.5 L222.5,294.5" id="Line-Copy-47" stroke="#979797" stroke-linecap="square" fill="#979797" sketch:type="MSShapeGroup"></path>
            <path id="Line-Copy-47-decoration-1" d="M222.5,294.5 L233.3,297.5 L233.3,291.5 L222.5,294.5 Z" stroke="#979797" stroke-linecap="square" fill="#979797"></path>
            <path d="M410.5,294.5 L367.5,294.5" id="Line-Copy-50" stroke="#979797" stroke-linecap="square" fill="#979797" sketch:type="MSShapeGroup"></path>
            <path id="Line-Copy-50-decoration-1" d="M367.5,294.5 L378.3,297.5 L378.3,291.5 L367.5,294.5 Z" stroke="#979797" stroke-linecap="square" fill="#979797"></path>
            <path d="M2.5,219.5 L45.5,219.5" id="Line-Copy-52" stroke="#979797" stroke-linecap="square" fill="#979797" sketch:type="MSShapeGroup"></path>
            <path id="Line-Copy-52-decoration-1" d="M45.5,219.5 L34.7,216.5 L34.7,222.5 L45.5,219.5 Z" stroke="#979797" stroke-linecap="square" fill="#979797"></path>
            <path d="M295.50676,144.5 L222.5,144.5" id="Line-Copy-48" stroke="#979797" stroke-linecap="square" fill="#979797" sketch:type="MSShapeGroup"></path>
            <path id="Line-Copy-48-decoration-1" d="M222.5,144.5 L233.3,147.5 L233.3,141.5 L222.5,144.5 Z" stroke="#979797" stroke-linecap="square" fill="#979797"></path>
            <path d="M206.5,183.5 L206.5,160.5" id="Line-Copy-43" stroke="#979797" stroke-linecap="square" fill="#979797" sketch:type="MSShapeGroup"></path>
            <path id="Line-Copy-43-decoration-1" d="M206.5,160.5 L203.5,171.3 L209.5,171.3 L206.5,160.5 Z" stroke="#979797" stroke-linecap="square" fill="#979797"></path>
            <path d="M158.5,219.5 L169.5,219.5" id="Line-Copy-45" stroke="#979797" stroke-linecap="square" fill="#979797" sketch:type="MSShapeGroup"></path>
            <path id="Line-Copy-45-decoration-1" d="M169.5,219.5 L158.7,216.5 L158.7,222.5 L169.5,219.5 Z" stroke="#979797" stroke-linecap="square" fill="#979797"></path>
            <path d="M116.5,219.5 L127.5,219.5" id="Line-Copy-46" stroke="#979797" stroke-linecap="square" fill="#979797" sketch:type="MSShapeGroup"></path>
            <path id="Line-Copy-46-decoration-1" d="M127.5,219.5 L116.7,216.5 L116.7,222.5 L127.5,219.5 Z" stroke="#979797" stroke-linecap="square" fill="#979797"></path>
            <path d="M206.5,128.5 L206.5,105.5" id="Line-Copy-44" stroke="#979797" stroke-linecap="square" fill="#979797" sketch:type="MSShapeGroup"></path>
            <path id="Line-Copy-44-decoration-1" d="M206.5,105.5 L203.5,116.3 L209.5,116.3 L206.5,105.5 Z" stroke="#979797" stroke-linecap="square" fill="#979797"></path>
            <path d="M206.5,33.5 L206.5,0.5" id="Line-Copy-49" stroke="#979797" stroke-linecap="square" fill="#979797" sketch:type="MSShapeGroup"></path>
            <path id="Line-Copy-49-decoration-1" d="M206.5,0.5 L203.5,11.3 L209.5,11.3 L206.5,0.5 Z" stroke="#979797" stroke-linecap="square" fill="#979797"></path>
            <g id="Imported-Layers" transform="translate(323.000000, 283.000000)" fill="#000000" sketch:type="MSShapeGroup">
                <path d="M5.429448,2.25414 C5.429448,1.85247 5.588436,1.50103 5.906424,1.19978 C6.2244,0.89853 6.592584,0.73954 7.01099,0.7228 C7.31222,0.7228 7.56326,0.82322 7.7641,1.02405 C7.96493,1.22488 8.07371,1.47592 8.09045,1.77716 C8.09045,2.16208 7.92308,2.51354 7.58837,2.83152 C7.25365,3.1495 6.885468,3.31686 6.483804,3.3336 C6.232764,3.3336 5.998464,3.24992 5.780904,3.08256 C5.563332,2.9152 5.446188,2.63906 5.429448,2.25414 L5.429448,2.25414 Z M1.337539,10.1116 C1.337539,9.97772 1.412851,9.7183 1.563473,9.33339 C1.714096,8.94846 1.914925,8.5217 2.165963,8.0531 C2.417,7.58449 2.785188,7.15773 3.270528,6.77281 C3.755868,6.38788 4.257936,6.20379 4.776756,6.22052 C5.429448,6.22052 5.97336,6.41299 6.408492,6.79791 C6.843624,7.18284 7.06956,7.70164 7.08629,8.35434 C7.08629,8.63884 6.969144,9.10746 6.734844,9.76015 C6.500544,10.41285 6.165828,11.29148 5.730696,12.39604 C5.295564,13.500608 4.944108,14.446184 4.67634,15.23276 C4.592652,15.600956 4.55082,15.868724 4.55082,16.036076 C4.55082,16.45448 4.693068,16.663676 4.977576,16.663676 C5.1282,16.663676 5.287188,16.638572 5.454552,16.588364 C5.621904,16.538156 5.814372,16.421 6.031932,16.236908 C6.249504,16.052816 6.47544,15.759944 6.70974,15.35828 C6.94404,14.956616 7.15324,14.462912 7.33733,13.877156 C7.38754,13.676336 7.42938,13.55918 7.46285,13.525712 C7.49632,13.492232 7.63858,13.475504 7.88962,13.475504 C8.22433,13.475504 8.39168,13.55918 8.39168,13.726544 C8.39168,13.860428 8.31637,14.119832 8.16576,14.504756 C8.01514,14.88968 7.80594,15.316436 7.53816,15.785048 C7.27039,16.253648 6.893832,16.67204 6.408492,17.040236 C5.923152,17.40842 5.404344,17.592512 4.852056,17.592512 C4.31652,17.592512 3.822804,17.416784 3.370944,17.06534 C2.919074,16.713884 2.684773,16.178336 2.668038,15.458696 C2.668038,15.174188 2.709877,14.906408 2.793556,14.65538 C2.877235,14.40434 3.23706,13.4504 3.873012,11.79355 C4.508976,10.10323 4.87716,9.09072 4.977576,8.756 C5.077992,8.42128 5.136576,8.09493 5.153304,7.77696 C5.153304,7.37529 5.011056,7.17446 4.726548,7.17446 L4.67634,7.17446 C4.17426,7.17446 3.714024,7.4506 3.295632,8.00289 C2.877235,8.55517 2.559254,9.25808 2.341688,10.1116 C2.324953,10.12833 2.308217,10.15344 2.291482,10.18692 C2.274745,10.22038 2.266378,10.24549 2.266378,10.26223 C2.266378,10.27896 2.249642,10.2957 2.216171,10.31244 C2.182699,10.32916 2.157595,10.33754 2.140859,10.33754 L2.040444,10.33754 L1.839614,10.33754 L1.488162,10.33754 C1.387747,10.23712 1.337539,10.16181 1.337539,10.1116 L1.337539,10.1116 Z" id="Fill-1"></path>
                <path d="M9.93268,14.247788 C9.84984,14.164952 9.80842,14.10578 9.80842,14.070284 C9.80842,14.022944 9.82616,13.928276 9.86167,13.786268 C9.89717,13.64426 9.92676,13.561412 9.95042,13.537748 C9.97409,13.478576 10.02734,13.448996 10.11018,13.448996 C10.19303,13.448996 10.49479,13.44308 11.01548,13.431248 L11.9563,13.431248 L12.29356,12.01116 C12.32906,11.88099 12.37048,11.70939 12.41782,11.49638 C12.46516,11.28337 12.50657,11.12953 12.54208,11.03486 C12.57757,10.94018 12.61308,10.82185 12.64858,10.67984 C12.68408,10.53783 12.73142,10.43724 12.79058,10.37806 C12.84976,10.31889 12.90893,10.24789 12.9681,10.16505 C13.02727,10.08222 13.11011,10.02896 13.21661,10.0053 C13.32312,9.98163 13.42962,9.96979 13.53613,9.96979 C13.74914,9.98163 13.89707,10.04672 13.9799,10.16505 C14.06274,10.2834 14.10416,10.39582 14.10416,10.50232 C14.10416,10.58516 14.05091,10.86326 13.94441,11.33662 C13.8379,11.80998 13.71956,12.27742 13.58939,12.73896 L13.41187,13.39574 C13.41187,13.419404 13.70772,13.431248 14.29943,13.431248 L15.20473,13.431248 C15.28757,13.514084 15.32898,13.579172 15.32898,13.6265 C15.32898,13.886852 15.25206,14.093948 15.09822,14.247788 L13.19886,14.247788 L12.55982,16.821692 C12.0983,18.715124 11.86753,19.732856 11.86753,19.874864 C11.86753,20.371892 12.0273,20.6204 12.34681,20.6204 C12.761,20.6204 13.16336,20.419232 13.55388,20.016872 C13.94441,19.614512 14.258,19.117484 14.49469,18.525788 C14.51836,18.454784 14.54794,18.41336 14.58344,18.401528 C14.61894,18.389696 14.7077,18.377864 14.84971,18.36602 L14.92072,18.36602 C15.09822,18.36602 15.18697,18.41336 15.18697,18.508028 C15.18697,18.543536 15.16922,18.61454 15.13373,18.72104 C15.07456,18.910388 14.96804,19.135232 14.8142,19.395584 C14.66036,19.655936 14.45918,19.934036 14.21066,20.229884 C13.96216,20.525732 13.66039,20.774252 13.30537,20.97542 C12.95035,21.1766 12.58942,21.277196 12.22255,21.277196 C11.86753,21.277196 11.53027,21.188432 11.21075,21.010928 C10.89122,20.833412 10.66046,20.525732 10.51846,20.087876 C10.49479,19.993208 10.48296,19.83344 10.48296,19.608596 L10.48296,19.289084 L11.10424,16.803932 C11.51843,15.135344 11.73144,14.295128 11.74328,14.283296 C11.74328,14.25962 11.44151,14.247788 10.83798,14.247788 L9.93268,14.247788 L9.93268,14.247788 Z" id="Fill-3"></path>
            </g>
            <g id="Imported-Layers" transform="translate(70.000000, 205.600000)" fill="#000000" sketch:type="MSShapeGroup">
                <path d="M3.717372,23.190356 C3.750996,23.190356 3.801432,23.207168 3.868692,23.240792 C3.93594,23.274416 4.028412,23.29964 4.146096,23.316452 C4.263792,23.333264 4.364664,23.341676 4.448736,23.341676 C4.667304,23.341676 4.869048,23.232392 5.053992,23.013824 C5.238936,22.795256 5.373444,22.551464 5.457504,22.28246 C5.625636,21.828512 5.911452,20.542328 6.314964,18.423908 C6.718464,16.305488 7.10516,14.28794 7.47505,12.37128 C7.84493,10.4546 8.02987,9.48787 8.02987,9.47106 L8.02987,9.3954 L6.84456,9.3954 C6.05436,9.3954 5.634036,9.37858 5.5836,9.34496 C5.516352,9.29451 5.482728,9.21045 5.482728,9.09276 L5.65926,8.38662 C5.692884,8.30256 5.760132,8.26052 5.861016,8.26052 C5.961888,8.26052 6.356988,8.25212 7.04632,8.23531 C7.85334,8.23531 8.25685,8.2269 8.25685,8.21008 C8.25685,8.17646 8.3325,7.75614 8.48382,6.94912 C8.63514,6.1421 8.73601,5.65453 8.78645,5.4864 C9.40853,2.71227 10.63586,1.32522 12.46847,1.32522 C13.09055,1.35884 13.60334,1.54378 14.00684,1.88004 C14.41036,2.2163 14.61211,2.66184 14.61211,3.21667 C14.61211,3.82192 14.43558,4.25906 14.0825,4.52806 C13.72944,4.79707 13.37636,4.93998 13.0233,4.9568 C12.28354,4.9568 11.91365,4.60372 11.91365,3.89758 C11.91365,3.57814 12.00612,3.30073 12.19106,3.06535 C12.376,2.82997 12.57775,2.65342 12.79632,2.53574 L13.0233,2.40964 C12.7543,2.30877 12.5021,2.25832 12.26671,2.25832 C12.06497,2.25832 11.87161,2.3424 11.68667,2.51052 C11.50174,2.67865 11.37564,2.91403 11.30838,3.21667 C11.1907,3.70424 11.05619,4.35993 10.90488,5.18377 C10.75356,6.0076 10.61905,6.70533 10.50137,7.27698 C10.38367,7.84861 10.32484,8.15124 10.32484,8.18487 C10.32484,8.2185 10.78718,8.23531 11.71189,8.23531 C12.46847,8.23531 12.9056,8.24371 13.0233,8.26052 C13.14098,8.27733 13.23346,8.32778 13.3007,8.41184 C13.31753,8.47909 13.3007,8.622 13.25027,8.84056 C13.19983,9.05913 13.1578,9.19364 13.12417,9.24408 C13.09055,9.32814 13.01489,9.37017 12.8972,9.37017 C12.77951,9.37017 12.32556,9.37858 11.53536,9.3954 L10.12308,9.3954 L9.54304,12.47215 C8.73601,16.64174 8.17278,19.247732 7.85334,20.290136 C7.39939,21.719228 6.810936,22.778444 6.087984,23.467772 C5.465916,24.00578 4.852236,24.274784 4.24698,24.274784 C3.70896,24.274784 3.221388,24.115064 2.784257,23.795624 C2.347122,23.476172 2.128555,23.022224 2.128555,22.43378 C2.128555,21.8117 2.30509,21.357752 2.658161,21.071936 C3.011232,20.78612 3.364296,20.6432 3.717372,20.6432 C4.457136,20.6432 4.827024,20.996276 4.827024,21.702416 C4.827024,22.021856 4.734552,22.299272 4.549608,22.534652 C4.364664,22.770032 4.162908,22.946564 3.94434,23.06426 L3.717372,23.190356 L3.717372,23.190356 Z" id="Fill-1"></path>
                <path d="M13.5626,16.02212 C13.47938,15.9389 13.43778,15.87945 13.43778,15.84379 C13.43778,15.79623 13.45561,15.70113 13.49128,15.55846 C13.52694,15.41581 13.55666,15.33259 13.58044,15.3088 C13.60422,15.24937 13.65772,15.21964 13.74094,15.21964 C13.82416,15.21964 14.12731,15.2137 14.6504,15.20181 L15.59554,15.20181 L15.93436,13.77519 C15.97003,13.64442 16.01164,13.47204 16.05919,13.25804 C16.10675,13.04404 16.14835,12.8895 16.18402,12.79438 C16.21968,12.69928 16.25536,12.5804 16.29102,12.43773 C16.32668,12.29508 16.37424,12.19402 16.43368,12.13458 C16.49312,12.07514 16.55256,12.0038 16.61201,11.92058 C16.67144,11.83736 16.75466,11.78386 16.86167,11.76009 C16.96866,11.73631 17.07565,11.72443 17.18266,11.72443 C17.39665,11.73631 17.54525,11.8017 17.62847,11.92058 C17.71169,12.03946 17.7533,12.15241 17.7533,12.25941 C17.7533,12.34262 17.69981,12.622 17.5928,13.09755 C17.48581,13.57309 17.36693,14.04268 17.23615,14.50633 L17.05782,15.16615 C17.05782,15.18992 17.35504,15.20181 17.94946,15.20181 L18.85894,15.20181 C18.94216,15.28503 18.98376,15.35042 18.98376,15.39798 C18.98376,15.65952 18.90649,15.86756 18.75193,16.02212 L16.84384,16.02212 L16.20185,18.607868 C15.7382,20.510024 15.50638,21.532436 15.50638,21.675092 C15.50638,22.174412 15.66688,22.424072 15.98786,22.424072 C16.40395,22.424072 16.80816,22.221968 17.20049,21.81776 C17.5928,21.413552 17.90785,20.914232 18.14562,20.319812 C18.1694,20.248472 18.19912,20.206868 18.23478,20.194976 C18.27046,20.183096 18.35962,20.171204 18.50227,20.159312 L18.57361,20.159312 C18.75193,20.159312 18.8411,20.206868 18.8411,20.30198 C18.8411,20.337644 18.82327,20.408972 18.7876,20.515964 C18.72816,20.706188 18.62117,20.932064 18.46661,21.193616 C18.31206,21.455156 18.10996,21.73454 17.8603,22.031756 C17.61064,22.32896 17.30748,22.57862 16.95083,22.780724 C16.59418,22.982828 16.23157,23.08388 15.86303,23.08388 C15.50638,23.08388 15.16756,22.99472 14.84657,22.816388 C14.52558,22.638068 14.29375,22.32896 14.15108,21.889088 C14.12731,21.793988 14.11542,21.633488 14.11542,21.407612 L14.11542,21.086612 L14.73956,18.590036 C15.15566,16.913756 15.36966,16.069676 15.38155,16.057784 C15.38155,16.034 15.07838,16.02212 14.47207,16.02212 L13.5626,16.02212 L13.5626,16.02212 Z" id="Fill-3"></path>
            </g>
            <g id="Imported-Layers" transform="translate(322.000000, 138.000000)" fill="#000000" sketch:type="MSShapeGroup">
                <path d="M5.484372,11.708504 C4.269348,11.708504 3.289236,11.311592 2.544029,10.51778 C1.798818,9.723968 1.426212,8.768156 1.426212,7.650344 C1.426212,6.59732 1.669216,5.60101 2.155223,4.6614 C2.64123,3.72178 3.305436,2.90367 4.147848,2.20706 C5.379072,1.21885 6.634584,0.72474 7.91441,0.72474 C8.43282,0.72474 8.75682,0.73284 8.88642,0.74904 C9.09702,0.79764 9.30763,0.85434 9.51823,0.91914 C9.72883,0.98395 10.01233,1.11355 10.36874,1.30795 C10.72514,1.50235 11.01676,1.74535 11.24356,2.03696 C11.47036,2.32856 11.68096,2.72547 11.87537,3.22767 C12.06977,3.72988 12.16697,4.2969 12.16697,4.9287 C12.16697,6.66212 11.47036,8.225444 10.07713,9.618668 C8.68392,11.011892 7.153,11.708504 5.484372,11.708504 L5.484372,11.708504 Z M3.540348,8.525156 C3.540348,9.335168 3.750948,9.918368 4.172148,10.27478 C4.59336,10.63118 5.07126,10.80938 5.605872,10.80938 C6.318684,10.80938 6.990996,10.55018 7.62281,10.03178 C8.25461,9.513368 8.75682,8.832956 9.12942,7.990544 C9.27523,7.650344 9.46153,7.050932 9.68833,6.19232 C9.91513,5.33371 10.02853,4.5885 10.02853,3.95668 C10.02853,3.24387 9.88273,2.70117 9.59113,2.32856 C9.20232,1.84256 8.68392,1.59955 8.03591,1.59955 C7.0153,1.59955 6.116184,2.06936 5.338572,3.00897 C4.73916,3.72178 4.293648,4.6695 4.002048,5.85211 C3.710448,7.034732 3.556548,7.925744 3.540348,8.525156 L3.540348,8.525156 Z" id="Fill-1"></path>
                <path d="M12.83243,8.470808 C12.75224,8.390624 12.71215,8.333348 12.71215,8.29898 C12.71215,8.253164 12.72934,8.16152 12.76369,8.02406 C12.79806,7.886588 12.8267,7.806404 12.84961,7.783496 C12.87252,7.72622 12.92407,7.697576 13.00426,7.697576 C13.08444,7.697576 13.37656,7.691852 13.88059,7.680404 L14.79128,7.680404 L15.11776,6.30577 C15.15212,6.17976 15.19222,6.01365 15.23804,5.80746 C15.28386,5.60126 15.32395,5.45234 15.35832,5.3607 C15.39269,5.26905 15.42706,5.1545 15.46142,5.01704 C15.49578,4.87958 15.54161,4.78221 15.59888,4.72494 C15.65616,4.66766 15.71344,4.59892 15.77071,4.51874 C15.82799,4.43854 15.90817,4.387 16.01128,4.36408 C16.11437,4.34118 16.21747,4.32973 16.32056,4.32973 C16.52676,4.34118 16.66996,4.40419 16.75014,4.51874 C16.83032,4.63329 16.87042,4.74212 16.87042,4.84521 C16.87042,4.9254 16.81888,5.1946 16.71577,5.65281 C16.61268,6.11102 16.49813,6.5635 16.37212,7.010264 L16.20029,7.646036 C16.20029,7.668944 16.48667,7.680404 17.05943,7.680404 L17.93576,7.680404 C18.01595,7.760588 18.05604,7.823588 18.05604,7.869416 C18.05604,8.121428 17.98158,8.3219 17.83266,8.470808 L15.99409,8.470808 L15.3755,10.962344 C14.92874,12.795188 14.70536,13.78034 14.70536,13.917812 C14.70536,14.398928 14.86002,14.639492 15.16931,14.639492 C15.57024,14.639492 15.95972,14.444756 16.33775,14.055272 C16.71577,13.665788 17.01934,13.184672 17.24844,12.6119 C17.27136,12.543176 17.29999,12.503084 17.33436,12.491624 C17.36873,12.480164 17.45464,12.468716 17.59211,12.457256 L17.66083,12.457256 C17.83266,12.457256 17.91858,12.503084 17.91858,12.594716 C17.91858,12.629084 17.9014,12.69782 17.86703,12.800912 C17.80975,12.9842 17.70666,13.201856 17.55774,13.453868 C17.40882,13.70588 17.21408,13.975088 16.97352,14.261468 C16.73296,14.547848 16.44085,14.788412 16.09718,14.983148 C15.75353,15.177896 15.40415,15.275264 15.04903,15.275264 C14.70536,15.275264 14.37889,15.189344 14.0696,15.017516 C13.7603,14.845688 13.53692,14.547848 13.39946,14.124008 C13.37656,14.032364 13.3651,13.87772 13.3651,13.660064 L13.3651,13.350776 L13.9665,10.94516 C14.36743,9.32996 14.57363,8.516636 14.58509,8.505176 C14.58509,8.482268 14.29298,8.470808 13.70876,8.470808 L12.83243,8.470808 L12.83243,8.470808 Z" id="Fill-3"></path>
            </g>
            <g id="Imported-Layers" transform="translate(197.000000, 213.000000)" fill="#000000" sketch:type="MSShapeGroup">
                <path d="M1.441333,7.58924 C1.441333,5.82194 2.138525,4.233 3.532908,2.8224 C4.927296,1.4118 6.43518,0.7065 8.05655,0.7065 C8.96453,0.7065 9.67793,0.90106 10.19677,1.2902 C10.71562,1.67932 10.98314,2.19006 10.99936,2.8224 C10.99936,3.29259 10.84532,3.68983 10.53726,4.0141 C10.2292,4.33838 9.84007,4.50862 9.36986,4.52485 C9.06181,4.52485 8.8186,4.44378 8.64025,4.28163 C8.4619,4.1195 8.37272,3.8763 8.37272,3.55202 C8.37272,3.22774 8.4619,2.9521 8.64025,2.72511 C8.8186,2.49812 8.99695,2.32788 9.17531,2.21438 C9.35365,2.10088 9.46715,2.05224 9.5158,2.06846 L9.54011,2.06846 C9.54011,2.03602 9.49147,1.98739 9.39419,1.92253 C9.2969,1.85768 9.12666,1.79282 8.88346,1.72797 C8.64025,1.66311 8.36461,1.63069 8.05655,1.63069 C7.57014,1.63069 7.10804,1.74418 6.670272,1.97118 C6.329784,2.1171 5.981184,2.36841 5.624484,2.72511 C4.911084,3.43852 4.39224,4.44378 4.067964,5.74088 C3.743688,7.037972 3.573444,7.978376 3.557232,8.562068 C3.557232,9.307904 3.768012,9.867284 4.189572,10.240196 C4.546272,10.629332 5.016468,10.823888 5.60016,10.823888 L5.697444,10.823888 C7.51339,10.823888 9.01316,10.134812 10.19677,8.756636 C10.34269,8.594504 10.43998,8.513432 10.48862,8.513432 C10.55347,8.513432 10.65887,8.586392 10.80479,8.732312 C10.95071,8.878244 11.03178,8.99174 11.04799,9.072812 C11.0642,9.153872 10.99124,9.27548 10.82911,9.437612 C10.66697,9.599756 10.43188,9.826748 10.12381,10.1186 C9.81575,10.41044 9.45094,10.653644 9.02938,10.848212 C8.60782,11.04278 8.08898,11.245448 7.47286,11.456228 C6.856728,11.667008 6.208188,11.75618 5.5272,11.723756 C4.311168,11.723756 3.33024,11.334632 2.584404,10.556372 C1.83857,9.7781 1.457546,8.78906 1.441333,7.58924 L1.441333,7.58924 Z" id="Fill-1"></path>
                <path d="M11.59241,8.483372 C11.51215,8.403116 11.47202,8.345792 11.47202,8.3114 C11.47202,8.265536 11.48922,8.17382 11.52361,8.03624 C11.55802,7.89866 11.58667,7.818404 11.6096,7.795472 C11.63254,7.738148 11.68412,7.709492 11.76438,7.709492 C11.84464,7.709492 12.13699,7.703756 12.64145,7.692296 L13.5529,7.692296 L13.87964,6.31651 C13.91405,6.19039 13.95416,6.02415 14.00003,5.81779 C14.04589,5.61141 14.08602,5.46237 14.12041,5.37066 C14.1548,5.27894 14.1892,5.16429 14.2236,5.02671 C14.25799,4.88913 14.30384,4.79168 14.36117,4.73436 C14.41849,4.67703 14.47582,4.60824 14.53314,4.52799 C14.59048,4.44774 14.67072,4.39614 14.77391,4.37322 C14.8771,4.35028 14.98027,4.33881 15.08346,4.33881 C15.28982,4.35028 15.43314,4.41334 15.5134,4.52799 C15.59365,4.64264 15.63377,4.75155 15.63377,4.85474 C15.63377,4.93498 15.58218,5.20442 15.47899,5.66301 C15.37582,6.1216 15.26117,6.57447 15.13505,7.021592 L14.96308,7.657892 C14.96308,7.680824 15.2497,7.692296 15.82295,7.692296 L16.7,7.692296 C16.78026,7.77254 16.82039,7.8356 16.82039,7.881464 C16.82039,8.133692 16.74587,8.33432 16.59683,8.483372 L14.75671,8.483372 L14.13761,10.976972 C13.69048,12.811352 13.46692,13.797332 13.46692,13.934912 C13.46692,14.416436 13.62169,14.657204 13.93124,14.657204 C14.33251,14.657204 14.72232,14.4623 15.10066,14.072492 C15.47899,13.682684 15.78282,13.20116 16.01212,12.62792 C16.03505,12.559124 16.0637,12.518996 16.0981,12.507536 C16.1325,12.496076 16.21848,12.484604 16.35606,12.473144 L16.42484,12.473144 C16.59683,12.473144 16.68281,12.518996 16.68281,12.610724 C16.68281,12.645116 16.66561,12.7139 16.63122,12.817088 C16.5739,13.000532 16.47071,13.218356 16.32167,13.470584 C16.17263,13.722812 15.97772,13.992236 15.73696,14.278856 C15.4962,14.565476 15.20384,14.806244 14.8599,15.001148 C14.51594,15.196052 14.16626,15.293504 13.81086,15.293504 C13.46692,15.293504 13.14017,15.207512 12.83062,15.03554 C12.52106,14.863568 12.29749,14.565476 12.15991,14.141276 C12.13699,14.04956 12.12552,13.894784 12.12552,13.676948 L12.12552,13.367408 L12.72743,10.959776 C13.1287,9.343232 13.33507,8.529224 13.34653,8.517764 C13.34653,8.494832 13.05418,8.483372 12.46946,8.483372 L11.59241,8.483372 L11.59241,8.483372 Z" id="Fill-3"></path>
            </g>
            <g id="Imported-Layers" transform="translate(196.000000, 58.000000)" fill="#000000" sketch:type="MSShapeGroup">
                <path d="M3.956904,1.24337 C3.973236,1.24337 4.561308,1.20253 5.72112,1.12086 C6.88092,1.03918 7.47716,0.99017 7.50983,0.97384 C7.70586,0.97384 7.80386,1.04735 7.80386,1.19436 C7.80386,1.37405 7.50983,2.60737 6.921756,4.89431 C6.30102,7.31194 5.990652,8.54525 5.990652,8.59426 C5.990652,8.62692 6.04782,8.58608 6.162168,8.47174 C7.15862,7.58963 8.22042,7.14858 9.34756,7.14858 C10.22965,7.14858 10.94024,7.3691 11.47931,7.81016 C12.01837,8.25121 12.29608,8.89645 12.31241,9.7459 C12.31241,10.579 12.00204,11.86948 11.38129,13.61736 C10.76056,15.365232 10.45019,16.410696 10.45019,16.75374 C10.46652,16.982424 10.50736,17.13762 10.5727,17.219292 C10.63804,17.300964 10.76056,17.3418 10.94024,17.3418 C11.39764,17.3418 11.82235,17.096772 12.21439,16.606716 C12.60644,16.11666 12.92498,15.446916 13.17001,14.597472 C13.21902,14.417784 13.26803,14.311608 13.31702,14.278932 C13.36603,14.246268 13.49672,14.229936 13.70908,14.229936 C14.03579,14.229936 14.19913,14.295276 14.19913,14.425956 C14.19913,14.442288 14.16647,14.564808 14.10113,14.793504 C13.83976,15.757284 13.42321,16.549548 12.85147,17.170284 C12.29608,17.872704 11.63449,18.223908 10.86673,18.223908 L10.74422,18.223908 C9.97646,18.223908 9.42106,18.003384 9.07802,17.562336 C8.73498,17.121276 8.56345,16.655724 8.56345,16.165668 C8.56345,15.904296 8.85749,14.940516 9.44556,13.27432 C10.03363,11.60812 10.33584,10.35846 10.35217,9.52536 C10.35217,8.56158 9.9928,8.0797 9.27404,8.0797 L9.15152,8.0797 C7.7957,8.0797 6.61956,8.88012 5.623104,10.48098 L5.451588,10.79952 L4.618488,14.107416 C4.095756,16.231008 3.793548,17.390808 3.711876,17.58684 C3.499512,18.027888 3.140136,18.248412 2.633744,18.248412 C2.405051,18.248412 2.209027,18.1749 2.045674,18.027888 C1.882321,17.880876 1.792477,17.733852 1.776142,17.58684 C1.776142,17.358144 2.37238,14.875176 3.564852,10.13794 L5.378076,2.88506 C5.378076,2.67271 5.320896,2.54202 5.206548,2.49302 C5.092212,2.44402 4.773672,2.40318 4.25094,2.3705 L3.73638,2.3705 C3.638364,2.27249 3.589356,2.20715 3.589356,2.17448 C3.589356,2.14181 3.6057,1.98662 3.638364,1.70892 C3.720036,1.39855 3.826224,1.24337 3.956904,1.24337 L3.956904,1.24337 Z" id="Fill-1"></path>
                <path d="M15.16418,14.98374 C15.08333,14.902884 15.0429,14.845128 15.0429,14.810472 C15.0429,14.764272 15.06022,14.67186 15.09487,14.53326 C15.12953,14.394648 15.1584,14.313792 15.1815,14.290692 C15.20461,14.232936 15.25658,14.204052 15.33744,14.204052 C15.4183,14.204052 15.71284,14.19828 16.22107,14.186736 L17.13936,14.186736 L17.46857,12.80064 C17.50321,12.67357 17.54364,12.50609 17.58985,12.29818 C17.63605,12.09026 17.67648,11.9401 17.71112,11.8477 C17.74578,11.75528 17.78044,11.63978 17.81509,11.50117 C17.84974,11.36256 17.89595,11.26438 17.95369,11.20662 C18.01145,11.14888 18.0692,11.07956 18.12696,10.99871 C18.18472,10.91785 18.26557,10.86588 18.36953,10.84278 C18.47348,10.81967 18.57744,10.80812 18.6814,10.80812 C18.88931,10.81967 19.03369,10.88321 19.11455,10.99871 C19.1954,11.11422 19.23583,11.22395 19.23583,11.3279 C19.23583,11.40876 19.18386,11.68021 19.0799,12.14224 C18.97595,12.60427 18.86044,13.06052 18.73338,13.511 L18.56011,14.15208 C18.56011,14.17518 18.84888,14.186736 19.42643,14.186736 L20.31006,14.186736 C20.39092,14.267592 20.43134,14.33112 20.43134,14.37732 C20.43134,14.631432 20.35626,14.833572 20.2061,14.98374 L18.3522,14.98374 L17.72845,17.496036 C17.27797,19.344168 17.05273,20.337528 17.05273,20.47614 C17.05273,20.961276 17.20867,21.203844 17.52054,21.203844 C17.92482,21.203844 18.31754,21.007476 18.69872,20.614752 C19.0799,20.222028 19.386,19.736892 19.61701,19.159356 C19.64011,19.090044 19.669,19.049616 19.70364,19.038072 C19.7383,19.026516 19.82492,19.01496 19.96354,19.003416 L20.03284,19.003416 C20.2061,19.003416 20.29273,19.049616 20.29273,19.142028 C20.29273,19.176672 20.2754,19.245984 20.24076,19.34994 C20.183,19.534752 20.07905,19.75422 19.92888,20.008332 C19.77872,20.262456 19.58236,20.533896 19.33979,20.822664 C19.09722,21.111432 18.80268,21.354 18.45616,21.550368 C18.10963,21.746736 17.75734,21.844908 17.39926,21.844908 C17.05273,21.844908 16.72354,21.75828 16.41167,21.585024 C16.09979,21.411756 15.87455,21.111432 15.73595,20.684052 C15.71284,20.591652 15.70129,20.435712 15.70129,20.216244 L15.70129,19.904376 L16.30771,17.478708 C16.71198,15.850044 16.9199,15.02994 16.93145,15.018384 C16.93145,14.995284 16.63691,14.98374 16.04782,14.98374 L15.16418,14.98374 L15.16418,14.98374 Z" id="Fill-3"></path>
            </g>
            <g id="Imported-Layers" transform="translate(178.000000, 357.000000)" fill="#000000" sketch:type="MSShapeGroup">
                <path d="M1.640629,13.32488 C1.640629,11.50068 2.360269,9.86056 3.799548,8.40454 C5.238828,6.94854 6.795264,6.22052 8.46884,6.22052 C9.40604,6.22052 10.14242,6.42135 10.67797,6.82302 C11.21352,7.22467 11.48966,7.75185 11.50639,8.40454 C11.50639,8.88988 11.3474,9.29991 11.02943,9.63463 C10.71144,9.96934 10.30979,10.14507 9.82445,10.16181 C9.50646,10.16181 9.25543,10.07812 9.07133,9.91077 C8.88724,9.74341 8.7952,9.49238 8.7952,9.15766 C8.7952,8.82295 8.88724,8.53844 9.07133,8.30413 C9.25543,8.06983 9.43952,7.8941 9.62362,7.77696 C9.80771,7.6598 9.92486,7.60959 9.97507,7.62633 L10.00018,7.62633 C10.00018,7.59286 9.94997,7.54266 9.84955,7.47571 C9.74914,7.40877 9.57341,7.34182 9.32237,7.27488 C9.07133,7.20794 8.78682,7.17446 8.46884,7.17446 C7.96676,7.17446 7.4898,7.29162 7.03793,7.52592 C6.686484,7.67654 6.326664,7.93594 5.958468,8.30413 C5.2221,9.04051 4.686552,10.07812 4.351836,11.417 C4.01712,12.75586 3.841392,13.726544 3.824652,14.329028 C3.824652,15.098876 4.042224,15.676256 4.477356,16.06118 C4.84554,16.462844 5.33088,16.663676 5.933364,16.663676 L6.03378,16.663676 C7.90819,16.663676 9.45625,15.9524 10.67797,14.52986 C10.8286,14.362496 10.92901,14.27882 10.97922,14.27882 C11.04616,14.27882 11.15495,14.354132 11.30556,14.504756 C11.45618,14.65538 11.53987,14.772524 11.5566,14.856212 C11.57334,14.939888 11.49803,15.065408 11.33066,15.23276 C11.16331,15.400124 10.92064,15.634424 10.60266,15.935672 C10.28468,16.236908 9.90812,16.487948 9.47299,16.68878 C9.03786,16.889612 8.50231,17.098808 7.86635,17.316368 C7.2304,17.53394 6.560964,17.62598 5.858052,17.592512 C4.602864,17.592512 3.590352,17.190848 2.820504,16.387532 C2.050657,15.584216 1.657364,14.563328 1.640629,13.32488 L1.640629,13.32488 Z" id="Fill-1"></path>
                <path d="M11.65702,18.872804 L11.65702,17.943968 L24.18378,17.943968 L24.18378,18.872804 L11.65702,18.872804 L11.65702,18.872804 Z" id="Fill-3"></path>
                <path d="M28.82797,2.25414 C28.82797,1.85247 28.98696,1.50103 29.30494,1.19978 C29.62292,0.89853 29.99111,0.73954 30.4095,0.7228 C30.71075,0.7228 30.96179,0.82322 31.16262,1.02405 C31.36344,1.22488 31.47223,1.47592 31.48896,1.77716 C31.48896,2.16208 31.32161,2.51354 30.98689,2.83152 C30.65218,3.1495 30.28398,3.31686 29.88233,3.3336 C29.63129,3.3336 29.39699,3.24992 29.17942,3.08256 C28.96186,2.9152 28.8447,2.63906 28.82797,2.25414 L28.82797,2.25414 Z M24.73606,10.1116 C24.73606,9.97772 24.81137,9.7183 24.96199,9.33339 C25.11262,8.94846 25.31345,8.5217 25.56449,8.0531 C25.81552,7.58449 26.18371,7.15773 26.66905,6.77281 C27.15438,6.38788 27.65646,6.20379 28.17527,6.22052 C28.82797,6.22052 29.37188,6.41299 29.80702,6.79791 C30.24215,7.18284 30.46808,7.70164 30.48481,8.35434 C30.48481,8.63884 30.36767,9.10746 30.13336,9.76015 C29.89906,10.41285 29.56434,11.29148 29.12921,12.39604 C28.69408,13.500608 28.34263,14.446184 28.07485,15.23276 C27.99118,15.600956 27.94933,15.868724 27.94933,16.036076 C27.94933,16.45448 28.09159,16.663676 28.3761,16.663676 C28.52672,16.663676 28.68571,16.638572 28.85308,16.588364 C29.02043,16.538156 29.2129,16.421 29.43046,16.236908 C29.64803,16.052816 29.87395,15.759944 30.10825,15.35828 C30.34256,14.956616 30.55176,14.462912 30.73585,13.877156 C30.78606,13.676336 30.8279,13.55918 30.86137,13.525712 C30.89484,13.492232 31.0371,13.475504 31.28813,13.475504 C31.62284,13.475504 31.79021,13.55918 31.79021,13.726544 C31.79021,13.860428 31.7149,14.119832 31.56427,14.504756 C31.41365,14.88968 31.20445,15.316436 30.93668,15.785048 C30.6689,16.253648 30.29236,16.67204 29.80702,17.040236 C29.32168,17.40842 28.80287,17.592512 28.25058,17.592512 C27.71503,17.592512 27.22133,17.416784 26.76946,17.06534 C26.3176,16.713884 26.0833,16.178336 26.06656,15.458696 C26.06656,15.174188 26.1084,14.906408 26.19208,14.65538 C26.27575,14.40434 26.63557,13.4504 27.27154,11.79355 C27.9075,10.10323 28.27568,9.09072 28.3761,8.756 C28.47652,8.42128 28.53509,8.09493 28.55183,7.77696 C28.55183,7.37529 28.40957,7.17446 28.12506,7.17446 L28.07485,7.17446 C27.57278,7.17446 27.11255,7.4506 26.69416,8.00289 C26.27575,8.55517 25.95778,9.25808 25.7402,10.1116 C25.72348,10.12833 25.70674,10.15344 25.69,10.18692 C25.67327,10.22038 25.66489,10.24549 25.66489,10.26223 C25.66489,10.27896 25.64816,10.2957 25.6147,10.31244 C25.58122,10.32916 25.55611,10.33754 25.53938,10.33754 L25.43897,10.33754 L25.23814,10.33754 L24.88668,10.33754 C24.78626,10.23712 24.73606,10.16181 24.73606,10.1116 L24.73606,10.1116 Z" id="Fill-4"></path>
                <path d="M33.39685,10.1116 C33.41358,10.01119 33.43868,9.8773 33.47215,9.70994 C33.50563,9.54259 33.60605,9.2246 33.7734,8.756 C33.94076,8.2874 34.10812,7.8941 34.27548,7.57612 C34.44283,7.25815 34.71898,6.94854 35.1039,6.64729 C35.48882,6.34604 35.87375,6.20379 36.25867,6.22052 C36.86116,6.22052 37.36324,6.37114 37.7649,6.67239 C38.16655,6.97364 38.41759,7.25815 38.51801,7.52592 C38.61842,7.7937 38.66863,7.96941 38.66863,8.0531 C38.66863,8.08657 38.677,8.10331 38.69374,8.10331 L38.96988,7.82716 C39.99076,6.75607 41.1539,6.22052 42.45929,6.22052 C43.36303,6.22052 44.09104,6.44646 44.64331,6.89833 C45.1956,7.35019 45.48011,8.01126 45.49685,8.88152 C45.51358,9.75178 45.1956,11.06554 44.54291,12.8228 C43.8902,14.580068 43.57223,15.642788 43.58896,16.010984 C43.58896,16.446104 43.73122,16.663676 44.01572,16.663676 C44.11614,16.663676 44.19145,16.655312 44.24166,16.638572 C44.727,16.554896 45.16213,16.236908 45.54706,15.684632 C45.93198,15.132344 46.22485,14.462912 46.42568,13.676336 C46.45915,13.54244 46.62652,13.475504 46.92775,13.475504 C47.26247,13.475504 47.42983,13.54244 47.42983,13.676336 C47.42983,13.693064 47.39636,13.818584 47.32942,14.052884 C47.19553,14.538224 47.01144,15.0152 46.77714,15.4838 C46.54283,15.9524 46.1579,16.421 45.62237,16.889612 C45.08682,17.358212 44.50943,17.584148 43.8902,17.567408 C43.10363,17.567408 42.5346,17.341472 42.18316,16.889612 C41.8317,16.43774 41.65597,15.96914 41.65597,15.4838 C41.65597,15.165824 41.95722,14.161664 42.5597,12.47136 C43.1622,10.78104 43.47181,9.50911 43.48854,8.65558 C43.48854,7.66818 43.12036,7.17446 42.38398,7.17446 L42.25847,7.17446 C40.81919,7.17446 39.60583,8.01962 38.61842,9.70994 L38.4427,10.01119 L37.61428,13.375088 C37.06199,15.567476 36.74401,16.747352 36.66034,16.914716 C36.44276,17.366576 36.08294,17.592512 35.58088,17.592512 C35.3633,17.592512 35.18758,17.542304 35.05369,17.441888 C34.91981,17.341472 34.82776,17.241056 34.77755,17.14064 C34.72734,17.040236 34.71061,16.956548 34.72734,16.889612 C34.72734,16.67204 35.04533,15.308072 35.68128,12.7977 C36.31724,10.28733 36.65196,8.92336 36.68544,8.70579 C36.70217,8.62212 36.71054,8.42965 36.71054,8.12841 C36.71054,7.47571 36.50971,7.14936 36.10805,7.14936 C35.47208,7.14936 34.94491,7.98615 34.52652,9.65973 C34.4261,9.99445 34.3759,10.17018 34.3759,10.18692 C34.34242,10.28733 34.18343,10.33754 33.89892,10.33754 L33.54746,10.33754 C33.44705,10.23712 33.39685,10.16181 33.39685,10.1116 L33.39685,10.1116 Z" id="Fill-5"></path>
                <path d="M48.39343,14.247788 C48.3106,14.164952 48.26917,14.10578 48.26917,14.070284 C48.26917,14.022944 48.28693,13.928276 48.32243,13.786268 C48.35794,13.64426 48.38752,13.561412 48.41118,13.537748 C48.43486,13.478576 48.4881,13.448996 48.57095,13.448996 C48.65378,13.448996 48.95555,13.44308 49.47624,13.431248 L50.41705,13.431248 L50.75431,12.01116 C50.78982,11.88099 50.83124,11.70939 50.87857,11.49638 C50.92591,11.28337 50.96732,11.12953 51.00283,11.03486 C51.03833,10.94018 51.07384,10.82185 51.10933,10.67984 C51.14484,10.53783 51.19218,10.43724 51.25135,10.37806 C51.31051,10.31889 51.36968,10.24789 51.42886,10.16505 C51.48803,10.08222 51.57086,10.02896 51.67738,10.0053 C51.78388,9.98163 51.89039,9.96979 51.99689,9.96979 C52.2099,9.98163 52.35782,10.04672 52.44066,10.16505 C52.52351,10.2834 52.56492,10.39582 52.56492,10.50232 C52.56492,10.58516 52.51166,10.86326 52.40516,11.33662 C52.29865,11.80998 52.18032,12.27742 52.05014,12.73896 L51.87263,13.39574 C51.87263,13.419404 52.16849,13.431248 52.76018,13.431248 L53.66549,13.431248 C53.74832,13.514084 53.78974,13.579172 53.78974,13.6265 C53.78974,13.886852 53.71282,14.093948 53.55898,14.247788 L51.65962,14.247788 L51.02058,16.821692 C50.55906,18.715124 50.32829,19.732856 50.32829,19.874864 C50.32829,20.371892 50.48806,20.6204 50.80757,20.6204 C51.22176,20.6204 51.62412,20.419232 52.01464,20.016872 C52.40516,19.614512 52.71876,19.117484 52.95545,18.525788 C52.97911,18.454784 53.00869,18.41336 53.0442,18.401528 C53.0797,18.389696 53.16846,18.377864 53.31047,18.36602 L53.38147,18.36602 C53.55898,18.36602 53.64773,18.41336 53.64773,18.508028 C53.64773,18.543536 53.62998,18.61454 53.59448,18.72104 C53.53531,18.910388 53.4288,19.135232 53.27496,19.395584 C53.12112,19.655936 52.91994,19.934036 52.67143,20.229884 C52.42291,20.525732 52.12115,20.774252 51.76613,20.97542 C51.41111,21.1766 51.05017,21.277196 50.68331,21.277196 C50.32829,21.277196 49.99103,21.188432 49.6715,21.010928 C49.35199,20.833412 49.12122,20.525732 48.97921,20.087876 C48.95555,19.993208 48.94372,19.83344 48.94372,19.608596 L48.94372,19.289084 L49.565,16.803932 C49.97918,15.135344 50.19221,14.295128 50.20404,14.283296 C50.20404,14.25962 49.90226,14.247788 49.29874,14.247788 L48.39343,14.247788 L48.39343,14.247788 Z" id="Fill-6"></path>
            </g>
            <path d="M263.5,459.5 L410.5,459.5" id="Line" stroke="#979797" stroke-linecap="square" sketch:type="MSShapeGroup"></path>
            <path d="M2.5,459.5 L147.5,459.5" id="Line-Copy-51" stroke="#979797" stroke-linecap="square" sketch:type="MSShapeGroup"></path>
            <path d="M410.5,459.5 L410.5,144.5" id="Line" stroke="#979797" stroke-linecap="square" sketch:type="MSShapeGroup"></path>
            <path d="M1.5,459.5 L1.5,219.5" id="Line-Copy-53" stroke="#979797" stroke-linecap="square" sketch:type="MSShapeGroup"></path>
            <path d="M409.5,144.5 L367.5,144.5" id="Line" stroke="#979797" stroke-linecap="square" fill="#979797" sketch:type="MSShapeGroup"></path>
            <path id="Line-decoration-1" d="M367.5,144.5 L378.3,147.5 L378.3,141.5 L367.5,144.5 Z" stroke="#979797" stroke-linecap="square" fill="#979797"></path>
            <g id="Imported-Layers" transform="translate(156.000000, 447.000000)" fill="#000000" sketch:type="MSShapeGroup">
                <path d="M2.95125,13.60937 C2.95125,12.45876 3.034632,11.36651 3.201384,10.33263 C3.368136,9.29874 3.559908,8.4066 3.776688,7.65621 C3.993468,6.90581 4.301964,6.17208 4.702176,5.45504 C5.102388,4.73799 5.419224,4.17936 5.652684,3.77915 C5.886144,3.37894 6.236328,2.94537 6.703248,2.47846 C7.17016,2.01154 7.4453,1.72805 7.52868,1.62801 C7.61206,1.52795 7.82051,1.35286 8.15401,1.10272 L8.47919,1.10272 L8.57924,1.10272 C8.8127,1.10272 8.92943,1.17777 8.92943,1.32784 C8.92943,1.37787 8.78768,1.55296 8.50421,1.85313 C8.22072,2.15328 7.87888,2.59518 7.47865,3.17883 C7.07844,3.76247 6.6699,4.47952 6.253008,5.32997 C5.836116,6.18042 5.485932,7.33103 5.202444,8.78181 C4.918968,10.23258 4.777224,11.84177 4.777224,13.60937 C4.777224,15.37698 4.918968,16.97783 5.202444,18.411928 C5.485932,19.846024 5.827776,21.004972 6.227988,21.888772 C6.6282,22.772584 7.03675,23.489632 7.45364,24.039916 C7.87054,24.590212 8.22072,25.032112 8.50421,25.365628 C8.78768,25.699132 8.92943,25.874224 8.92943,25.890904 C8.92943,26.040988 8.80436,26.116024 8.55422,26.116024 L8.47919,26.116024 L8.15401,26.116024 L7.45364,25.5157 C5.886144,24.098284 4.743876,22.330684 4.026828,20.212888 C3.30978,18.095092 2.95125,15.89392 2.95125,13.60937 L2.95125,13.60937 Z" id="Fill-1"></path>
                <path d="M11.63087,12.63386 C11.74759,11.93349 12.19783,11.12472 12.98159,10.20756 C13.76533,9.29042 14.73252,8.8235 15.88313,8.80682 C16.46677,8.80682 17.00039,8.9569 17.48398,9.25706 C17.96756,9.55722 18.32609,9.93242 18.55955,10.38266 C19.25992,9.3321 20.10204,8.80682 21.0859,8.80682 C21.70289,8.80682 22.2365,8.99025 22.68674,9.35711 C23.13698,9.72398 23.37044,10.2159 23.38711,10.8329 C23.38711,11.31648 23.27039,11.70837 23.03693,12.00852 C22.80347,12.30868 22.57835,12.49211 22.36157,12.55882 C22.14479,12.62552 21.95302,12.65886 21.78626,12.65886 C21.46943,12.65886 21.21096,12.56715 21.01085,12.38373 C20.81075,12.2003 20.71069,11.9585 20.71069,11.65834 C20.71069,10.89126 21.12758,10.36599 21.96136,10.0825 C21.77792,9.86572 21.44442,9.75732 20.96082,9.75732 C20.74404,9.75732 20.58563,9.774 20.48557,9.80735 C19.8519,10.07416 19.38499,10.62446 19.08482,11.45823 C18.0843,15.14352 17.58403,17.29467 17.58403,17.91166 C17.58403,18.37858 17.71744,18.712084 17.98424,18.912196 C18.25105,19.112296 18.54287,19.212352 18.8597,19.212352 C19.47671,19.212352 20.08536,18.937204 20.68568,18.38692 C21.286,17.83662 21.69455,17.16126 21.91133,16.36084 C21.96136,16.19409 22.01138,16.10237 22.06141,16.08569 C22.11144,16.06901 22.24484,16.05234 22.46162,16.03566 L22.56168,16.03566 C22.81181,16.03566 22.93687,16.10237 22.93687,16.23578 C22.93687,16.25244 22.9202,16.34416 22.88684,16.51091 C22.62004,17.46142 22.1031,18.303532 21.33602,19.03726 C20.56895,19.770988 19.67681,20.137852 18.6596,20.137852 C17.49232,20.137852 16.60852,19.612564 16.00819,18.562012 C15.32449,19.595896 14.54075,20.112832 13.65695,20.112832 L13.50686,20.112832 C12.68976,20.112832 12.10612,19.896052 11.75593,19.462492 C11.40575,19.02892 11.22232,18.570352 11.20564,18.086752 C11.20564,17.55314 11.36406,17.11958 11.6809,16.78606 C11.99773,16.45256 12.37292,16.2858 12.8065,16.2858 C13.52354,16.2858 13.88207,16.63599 13.88207,17.33636 C13.88207,17.66987 13.78201,17.96169 13.5819,18.211828 C13.3818,18.461956 13.19003,18.628708 13.0066,18.712084 C12.82316,18.79546 12.71478,18.83716 12.68142,18.83716 L12.60638,18.862168 C12.60638,18.878848 12.65641,18.912196 12.75647,18.962224 C12.85651,19.012252 12.98992,19.070608 13.15668,19.137316 C13.32343,19.204012 13.48184,19.229032 13.63193,19.212352 C14.23225,19.212352 14.74919,18.83716 15.18275,18.086752 C15.33283,17.81994 15.5246,17.25298 15.75806,16.38585 C15.99151,15.51873 16.22497,14.61825 16.45843,13.68442 C16.69189,12.75058 16.8253,12.2003 16.85864,12.03353 C16.94202,11.58329 16.98371,11.25813 16.98371,11.05802 C16.98371,10.59111 16.85864,10.25759 16.60852,10.05749 C16.35838,9.85738 16.0749,9.75732 15.75806,9.75732 C15.09104,9.75732 14.4657,10.02413 13.88207,10.55775 C13.29842,11.09136 12.88987,11.77506 12.65641,12.60885 C12.62306,12.75892 12.58138,12.8423 12.53135,12.85898 C12.48132,12.87566 12.34792,12.89232 12.13114,12.909 L11.78094,12.909 C11.6809,12.80895 11.63087,12.71723 11.63087,12.63386 L11.63087,12.63386 Z" id="Fill-3"></path>
                <path d="M25.09764,16.80518 C25.0151,16.72263 24.97384,16.66367 24.97384,16.6283 C24.97384,16.58114 24.99152,16.4868 25.0269,16.34531 C25.06228,16.20381 25.09175,16.12127 25.11533,16.09769 C25.13892,16.03874 25.19197,16.00925 25.27452,16.00925 C25.35706,16.00925 25.65774,16.00336 26.17656,15.99156 L27.11398,15.99156 L27.45002,14.5766 C27.4854,14.44689 27.52667,14.27592 27.57384,14.06368 C27.621,13.85142 27.66227,13.69814 27.69764,13.60382 C27.73302,13.50948 27.7684,13.39156 27.80377,13.25007 C27.83914,13.10858 27.88631,13.00834 27.94526,12.94938 C28.00422,12.89043 28.06318,12.81969 28.12213,12.73714 C28.18109,12.6546 28.26364,12.60154 28.36975,12.57796 C28.47588,12.55438 28.582,12.54258 28.68812,12.54258 C28.90037,12.55438 29.04776,12.61923 29.1303,12.73714 C29.21284,12.85505 29.2541,12.96707 29.2541,13.0732 C29.2541,13.15574 29.20105,13.43284 29.09492,13.90449 C28.9888,14.37615 28.87088,14.8419 28.74119,15.30177 L28.56431,15.95619 C28.56431,15.97977 28.8591,15.99156 29.44866,15.99156 L30.3507,15.99156 C30.43325,16.0741 30.47452,16.13896 30.47452,16.18612 C30.47452,16.44554 30.39787,16.65189 30.24458,16.80518 L28.35206,16.80518 L27.71533,19.369792 C27.25547,21.25642 27.02554,22.27048 27.02554,22.411972 C27.02554,22.907212 27.18472,23.154832 27.50309,23.154832 C27.91578,23.154832 28.31669,22.954372 28.70581,22.553476 C29.09492,22.152568 29.40739,21.657328 29.64323,21.067756 C29.66681,20.997004 29.69628,20.955736 29.73166,20.943952 C29.76703,20.932156 29.85547,20.92036 29.99696,20.908576 L30.06772,20.908576 C30.24458,20.908576 30.33302,20.955736 30.33302,21.050068 C30.33302,21.085444 30.31534,21.156196 30.27996,21.262312 C30.221,21.450976 30.11488,21.675016 29.96159,21.93442 C29.8083,22.193836 29.60785,22.470928 29.36023,22.76572 C29.11261,23.0605 28.81193,23.30812 28.45819,23.508568 C28.10444,23.709028 27.74482,23.809252 27.37927,23.809252 C27.02554,23.809252 26.68948,23.720812 26.37112,23.543944 C26.05274,23.367076 25.82281,23.0605 25.68132,22.624216 C25.65774,22.529884 25.64594,22.370704 25.64594,22.146664 L25.64594,21.828304 L26.26499,19.352104 C26.67769,17.68953 26.88994,16.85234 26.90173,16.84054 C26.90173,16.81696 26.60105,16.80518 25.99968,16.80518 L25.09764,16.80518 L25.09764,16.80518 Z" id="Fill-4"></path>
                <path d="M35.46854,18.987232 L35.46854,18.3619 C35.46854,17.94501 35.60195,17.58648 35.86876,17.28633 C36.13556,16.98617 36.49409,16.83609 36.94433,16.83609 C37.41124,16.83609 37.82813,17.04454 38.19499,17.46142 C38.56186,17.87831 38.75362,18.61204 38.7703,19.662592 C38.7703,20.246236 38.69526,20.8132 38.54518,21.363496 C38.39509,21.913792 38.22,22.38904 38.0199,22.789252 C37.81979,23.189464 37.60301,23.53132 37.36955,23.814796 C37.13609,24.098284 36.93599,24.323404 36.76924,24.490156 C36.60247,24.65692 36.49409,24.731956 36.44406,24.715276 C36.37735,24.715276 36.26897,24.64024 36.11888,24.490156 C35.9688,24.340084 35.89376,24.231688 35.89376,24.164992 C35.89376,24.098284 35.98548,23.96488 36.16891,23.76478 C36.35234,23.564668 36.56078,23.31454 36.79424,23.014372 C37.0277,22.714216 37.24448,22.297324 37.4446,21.763708 C37.6447,21.230092 37.7781,20.62144 37.84481,19.93774 L37.84481,19.637584 L37.81979,19.662592 C37.78644,19.679272 37.74475,19.69594 37.69472,19.71262 C37.6447,19.7293 37.59467,19.754308 37.54464,19.787656 C37.49461,19.821016 37.41958,19.837684 37.31952,19.837684 C37.21948,19.837684 37.11942,19.846024 37.01936,19.862704 C36.56912,19.862704 36.20226,19.72096 35.91878,19.437472 L35.46854,18.987232 Z" id="Fill-5"></path>
                <path d="M48.05023,2.77862 C48.0669,2.77862 48.66722,2.73693 49.85119,2.65355 C51.03515,2.57018 51.64381,2.52015 51.67716,2.50347 C51.87726,2.50347 51.97732,2.5785 51.97732,2.72859 C51.97732,2.91202 51.67716,4.17102 51.07684,6.5056 C50.44316,8.97358 50.12633,10.23258 50.12633,10.28261 C50.12633,10.31596 50.1847,10.27427 50.30143,10.15754 C51.31864,9.25706 52.40255,8.80682 53.55316,8.80682 C54.45364,8.80682 55.17902,9.03194 55.72931,9.48218 C56.2796,9.93242 56.56309,10.59111 56.57976,11.45823 C56.57976,12.30868 56.26292,13.62605 55.62926,15.41033 C54.99559,17.19461 54.67876,18.261844 54.67876,18.61204 C54.69542,18.845488 54.73712,19.003912 54.80382,19.087288 C54.87053,19.170664 54.99559,19.212352 55.17902,19.212352 C55.64593,19.212352 56.0795,18.962224 56.47972,18.461956 C56.87993,17.96169 57.20509,17.27799 57.45523,16.41087 C57.50526,16.22744 57.55529,16.11904 57.6053,16.08569 C57.65533,16.05234 57.78874,16.03566 58.00553,16.03566 C58.33903,16.03566 58.50578,16.10237 58.50578,16.23578 C58.50578,16.25244 58.47244,16.37751 58.40574,16.61097 C58.13893,17.59482 57.7137,18.403588 57.13006,19.03726 C56.56309,19.754308 55.88773,20.112832 55.10398,20.112832 L54.97891,20.112832 C54.19517,20.112832 53.62819,19.887712 53.27801,19.437472 C52.92782,18.987232 52.75273,18.511984 52.75273,18.011716 C52.75273,17.74491 53.05289,16.76105 53.65321,15.06015 C54.25352,13.35924 54.56202,12.08356 54.5787,11.23311 C54.5787,10.24925 54.21184,9.75732 53.47812,9.75732 L53.35304,9.75732 C51.96898,9.75732 50.76834,10.57443 49.75114,12.20864 L49.57604,12.5338 L48.72559,15.9106 C48.19198,18.078412 47.88348,19.26238 47.80009,19.462492 C47.58331,19.912732 47.21645,20.137852 46.69951,20.137852 C46.46605,20.137852 46.26595,20.062804 46.09919,19.912732 C45.93244,19.762648 45.84072,19.612564 45.82404,19.462492 C45.82404,19.229032 46.4327,16.69434 47.65002,11.85844 L49.501,4.45451 C49.501,4.23772 49.44264,4.10432 49.3259,4.0543 C49.20918,4.00427 48.884,3.96258 48.35039,3.92922 L47.82511,3.92922 C47.72506,3.82918 47.67503,3.76247 47.67503,3.72912 C47.67503,3.69576 47.69171,3.53735 47.72506,3.25386 C47.80843,2.93703 47.91683,2.77862 48.05023,2.77862 L48.05023,2.77862 Z" id="Fill-6"></path>
                <path d="M59.49094,16.80518 C59.40839,16.72263 59.36712,16.66367 59.36712,16.6283 C59.36712,16.58114 59.38481,16.4868 59.42018,16.34531 C59.45556,16.20381 59.48503,16.12127 59.50862,16.09769 C59.5322,16.03874 59.58527,16.00925 59.6678,16.00925 C59.75034,16.00925 60.05102,16.00336 60.56984,15.99156 L61.50726,15.99156 L61.84331,14.5766 C61.87868,14.44689 61.91995,14.27592 61.96712,14.06368 C62.01428,13.85142 62.05555,13.69814 62.09093,13.60382 C62.1263,13.50948 62.16168,13.39156 62.19706,13.25007 C62.23243,13.10858 62.27959,13.00834 62.33855,12.94938 C62.3975,12.89043 62.45646,12.81969 62.51542,12.73714 C62.57438,12.6546 62.65692,12.60154 62.76304,12.57796 C62.86916,12.55438 62.97528,12.54258 63.08141,12.54258 C63.29365,12.55438 63.44105,12.61923 63.52358,12.73714 C63.60612,12.85505 63.6474,12.96707 63.6474,13.0732 C63.6474,13.15574 63.59434,13.43284 63.48821,13.90449 C63.38209,14.37615 63.26418,14.8419 63.13447,15.30177 L62.9576,15.95619 C62.9576,15.97977 63.25238,15.99156 63.84196,15.99156 L64.744,15.99156 C64.82653,16.0741 64.8678,16.13896 64.8678,16.18612 C64.8678,16.44554 64.79116,16.65189 64.63787,16.80518 L62.74535,16.80518 L62.10862,19.369792 C61.64875,21.25642 61.41882,22.27048 61.41882,22.411972 C61.41882,22.907212 61.57801,23.154832 61.89637,23.154832 C62.30908,23.154832 62.70998,22.954372 63.0991,22.553476 C63.48821,22.152568 63.80069,21.657328 64.03651,21.067756 C64.06009,20.997004 64.08958,20.955736 64.12494,20.943952 C64.16032,20.932156 64.24876,20.92036 64.39025,20.908576 L64.461,20.908576 C64.63787,20.908576 64.72631,20.955736 64.72631,21.050068 C64.72631,21.085444 64.70862,21.156196 64.67324,21.262312 C64.61429,21.450976 64.50816,21.675016 64.35487,21.93442 C64.20158,22.193836 64.00114,22.470928 63.75352,22.76572 C63.5059,23.0605 63.20521,23.30812 62.85148,23.508568 C62.49774,23.709028 62.1381,23.809252 61.77257,23.809252 C61.41882,23.809252 61.08277,23.720812 60.7644,23.543944 C60.44603,23.367076 60.2161,23.0605 60.0746,22.624216 C60.05102,22.529884 60.03923,22.370704 60.03923,22.146664 L60.03923,21.828304 L60.65828,19.352104 C61.07098,17.68953 61.28322,16.85234 61.29502,16.84054 C61.29502,16.81696 60.99433,16.80518 60.39298,16.80518 L59.49094,16.80518 L59.49094,16.80518 Z" id="Fill-7"></path>
                <path d="M66.89518,19.422856 L66.89518,19.192924 C66.89518,19.039636 66.97771,18.921724 67.1428,18.839188 L77.41898,18.839188 C77.59585,18.93352 77.68429,19.051432 77.68429,19.192924 C77.68429,19.334428 77.59585,19.45234 77.41898,19.546672 L67.1428,19.546672 C66.97771,19.464124 66.89518,19.346212 66.89518,19.192924 L66.89518,19.422856 Z" id="Fill-8"></path>
                <path d="M82.93412,13.39156 L82.70419,13.48 C82.53911,13.53896 82.30328,13.59791 81.99671,13.65687 C81.69013,13.71582 81.34818,13.75709 80.97085,13.78068 L80.6348,13.78068 L80.6348,12.96707 L80.97085,12.96707 C81.52505,12.94349 82.03798,12.85505 82.50964,12.70176 C82.98128,12.54848 83.31144,12.40698 83.5001,12.27728 C83.68877,12.14757 83.85385,12.01787 83.99534,11.88816 C84.01892,11.85279 84.08968,11.8351 84.20759,11.8351 C84.31372,11.8351 84.41394,11.87048 84.50827,11.94123 L84.50827,17.22966 L84.52596,22.535788 C84.6085,22.618324 84.67925,22.671388 84.7382,22.694968 C84.79716,22.718548 84.93865,22.742128 85.16269,22.76572 C85.38673,22.7893 85.75226,22.801084 86.25929,22.801084 L86.71915,22.801084 L86.71915,23.614696 L86.5246,23.614696 C86.27698,23.57932 85.33956,23.561632 83.71235,23.561632 C82.10873,23.561632 81.1831,23.57932 80.93548,23.614696 L80.72323,23.614696 L80.72323,22.801084 L81.1831,22.801084 L81.8552,22.801084 C82.04387,22.801084 82.19126,22.795192 82.29738,22.783408 C82.40351,22.771612 82.49784,22.753924 82.58038,22.730344 C82.66292,22.706764 82.71008,22.694968 82.72188,22.694968 C82.73366,22.694968 82.76904,22.665484 82.828,22.606528 C82.88695,22.547572 82.92233,22.523992 82.93412,22.535788 L82.93412,13.39156 L82.93412,13.39156 Z" id="Fill-9"></path>
                <path d="M92.02361,1.12774 L92.12366,1.10272 L92.37379,1.10272 L92.67396,1.10272 L93.37433,1.70304 C94.94183,3.12046 96.08411,4.88807 96.80114,7.00587 C97.5182,9.12365 97.8767,11.32482 97.8767,13.60937 C97.8767,14.74331 97.7933,15.83556 97.6266,16.88612 C97.4598,17.93668 97.2681,18.82882 97.0513,19.562536 C96.8345,20.296264 96.52601,21.029992 96.1258,21.763708 C95.72557,22.497436 95.40875,23.05606 95.17529,23.439604 C94.94183,23.823136 94.59998,24.248368 94.14974,24.715276 C93.6995,25.182196 93.4327,25.457344 93.34932,25.54072 C93.26593,25.624096 93.07417,25.78252 92.774,26.015968 C92.72398,26.065996 92.69063,26.099344 92.67396,26.116024 L92.37379,26.116024 L92.09864,26.116024 C92.04863,26.116024 92.00694,26.091016 91.97358,26.040988 C91.94023,25.99096 91.91522,25.915924 91.89854,25.815868 C91.91522,25.799188 92.00694,25.690804 92.17369,25.490692 C94.7584,22.805932 96.05075,18.845488 96.05075,13.60937 C96.05075,8.37326 94.7584,4.41282 92.17369,1.72805 C92.00694,1.52795 91.91522,1.41956 91.89854,1.40289 C91.89854,1.26948 91.94023,1.17777 92.02361,1.12774 L92.02361,1.12774 Z" id="Fill-10"></path>
            </g>
            <g id="Imported-Layers" transform="translate(124.000000, 270.000000)" fill="#000000" sketch:type="MSShapeGroup">
                <path d="M1.861631,7.58924 C1.861631,5.82194 2.558822,4.233 3.953208,2.8224 C5.347596,1.4118 6.855468,0.7065 8.47685,0.7065 C9.38482,0.7065 10.09823,0.90106 10.61707,1.2902 C11.1359,1.67932 11.40343,2.19006 11.41966,2.8224 C11.41966,3.29259 11.26562,3.68983 10.95756,4.0141 C10.6495,4.33838 10.26036,4.50862 9.79016,4.52485 C9.4821,4.52485 9.2389,4.44378 9.06055,4.28163 C8.8822,4.1195 8.79302,3.8763 8.79302,3.55202 C8.79302,3.22774 8.8822,2.9521 9.06055,2.72511 C9.2389,2.49812 9.41725,2.32788 9.5956,2.21438 C9.77395,2.10088 9.88745,2.05224 9.9361,2.06846 L9.96041,2.06846 C9.96041,2.03602 9.91177,1.98739 9.81449,1.92253 C9.7172,1.85768 9.54696,1.79282 9.30376,1.72797 C9.06055,1.66311 8.78491,1.63069 8.47685,1.63069 C7.99044,1.63069 7.52834,1.74418 7.09057,1.97118 C6.750084,2.1171 6.401484,2.36841 6.044784,2.72511 C5.331384,3.43852 4.81254,4.44378 4.488264,5.74088 C4.163988,7.037972 3.993744,7.978376 3.977532,8.562068 C3.977532,9.307904 4.188312,9.867284 4.60986,10.240196 C4.966572,10.629332 5.436768,10.823888 6.02046,10.823888 L6.117744,10.823888 C7.93369,10.823888 9.43346,10.134812 10.61707,8.756636 C10.76299,8.594504 10.86028,8.513432 10.90891,8.513432 C10.97377,8.513432 11.07916,8.586392 11.22509,8.732312 C11.37101,8.878244 11.45208,8.99174 11.46829,9.072812 C11.4845,9.153872 11.41154,9.27548 11.2494,9.437612 C11.08727,9.599756 10.85216,9.826748 10.54411,10.1186 C10.23605,10.41044 9.87124,10.653644 9.44968,10.848212 C9.02812,11.04278 8.50928,11.245448 7.89316,11.456228 C7.27703,11.667008 6.628476,11.75618 5.9475,11.723756 C4.731468,11.723756 3.75054,11.334632 3.004704,10.556372 C2.258868,9.7781 1.877844,8.78906 1.861631,7.58924 L1.861631,7.58924 Z" id="Fill-1"></path>
                <path d="M12.01271,8.483372 C11.93245,8.403116 11.89232,8.345792 11.89232,8.3114 C11.89232,8.265536 11.90952,8.17382 11.94391,8.03624 C11.9783,7.89866 12.00697,7.818404 12.0299,7.795472 C12.05284,7.738148 12.10442,7.709492 12.18468,7.709492 C12.26494,7.709492 12.55728,7.703756 13.06174,7.692296 L13.9732,7.692296 L14.29994,6.31651 C14.33434,6.19039 14.37446,6.02415 14.42033,5.81779 C14.46619,5.61141 14.50631,5.46237 14.54071,5.37066 C14.5751,5.27894 14.6095,5.16429 14.64389,5.02671 C14.67829,4.88913 14.72414,4.79168 14.78147,4.73436 C14.83879,4.67703 14.89612,4.60824 14.95344,4.52799 C15.01076,4.44774 15.09102,4.39614 15.19421,4.37322 C15.29738,4.35028 15.40057,4.33881 15.50376,4.33881 C15.71012,4.35028 15.85344,4.41334 15.93368,4.52799 C16.01394,4.64264 16.05407,4.75155 16.05407,4.85474 C16.05407,4.93498 16.00248,5.20442 15.89929,5.66301 C15.79612,6.1216 15.68147,6.57447 15.55535,7.021592 L15.38338,7.657892 C15.38338,7.680824 15.67,7.692296 16.24324,7.692296 L17.1203,7.692296 C17.20056,7.77254 17.24069,7.8356 17.24069,7.881464 C17.24069,8.133692 17.16617,8.33432 17.01712,8.483372 L15.17701,8.483372 L14.55791,10.976972 C14.11078,12.811352 13.88722,13.797332 13.88722,13.934912 C13.88722,14.416436 14.04199,14.657204 14.35153,14.657204 C14.75281,14.657204 15.14261,14.4623 15.52096,14.072492 C15.89929,13.682684 16.20312,13.20116 16.43242,12.62792 C16.45534,12.559124 16.484,12.518996 16.5184,12.507536 C16.55279,12.496076 16.63878,12.484604 16.77636,12.473144 L16.84514,12.473144 C17.01712,12.473144 17.10311,12.518996 17.10311,12.610724 C17.10311,12.645116 17.08591,12.7139 17.05152,12.817088 C16.9942,13.000532 16.89101,13.218356 16.74197,13.470584 C16.59292,13.722812 16.39801,13.992236 16.15726,14.278856 C15.91649,14.565476 15.62414,14.806244 15.28019,15.001148 C14.93624,15.196052 14.58656,15.293504 14.23116,15.293504 C13.88722,15.293504 13.56046,15.207512 13.25092,15.03554 C12.94136,14.863568 12.71779,14.565476 12.58021,14.141276 C12.55728,14.04956 12.54582,13.894784 12.54582,13.676948 L12.54582,13.367408 L13.14773,10.959776 C13.549,9.343232 13.75536,8.529224 13.76683,8.517764 C13.76683,8.494832 13.47448,8.483372 12.88976,8.483372 L12.01271,8.483372 L12.01271,8.483372 Z" id="Fill-3"></path>
                <path d="M19.21192,11.028572 L19.21192,10.805 C19.21192,10.65596 19.29217,10.541312 19.45268,10.461056 L29.44432,10.461056 C29.61629,10.552772 29.70227,10.66742 29.70227,10.805 C29.70227,10.94258 29.61629,11.057228 29.44432,11.148944 L19.45268,11.148944 C19.29217,11.0687 19.21192,10.954052 19.21192,10.805 L19.21192,11.028572 Z" id="Fill-4"></path>
                <path d="M34.80673,5.16429 L34.58317,5.25027 C34.42266,5.3076 34.19336,5.36492 33.89527,5.42224 C33.59719,5.47957 33.26471,5.5197 32.89783,5.54263 L32.57108,5.54263 L32.57108,4.75155 L32.89783,4.75155 C33.43668,4.72862 33.9354,4.64264 34.39399,4.49359 C34.8526,4.34455 35.17361,4.20697 35.35705,4.08086 C35.54048,3.95474 35.701,3.82863 35.83858,3.70251 C35.8615,3.66812 35.93029,3.65092 36.04494,3.65092 C36.14813,3.65092 36.24558,3.68532 36.3373,3.75411 L36.3373,8.8961 L36.35449,14.055296 C36.43475,14.135552 36.50353,14.18714 36.56086,14.210072 C36.61818,14.233004 36.75576,14.255924 36.9736,14.278856 C37.19142,14.301788 37.54684,14.31326 38.03983,14.31326 L38.48695,14.31326 L38.48695,15.104336 L38.29778,15.104336 C38.05703,15.069932 37.14557,15.052736 35.56342,15.052736 C34.0042,15.052736 33.1042,15.069932 32.86344,15.104336 L32.65706,15.104336 L32.65706,14.31326 L33.1042,14.31326 L33.75769,14.31326 C33.94114,14.31326 34.08444,14.307524 34.18763,14.296052 C34.29082,14.284592 34.38253,14.267396 34.46279,14.244464 C34.54304,14.221532 34.5889,14.210072 34.60037,14.210072 C34.61183,14.210072 34.64622,14.181404 34.70354,14.12408 C34.76087,14.066756 34.79527,14.043824 34.80673,14.055296 L34.80673,5.16429 L34.80673,5.16429 Z" id="Fill-5"></path>
            </g>
        </g>
    </g>
</svg>